<svg id="Layer_1" data-name="Layer 1" xmlns="http://www.w3.org/2000/svg" xmlns:xlink="http://www.w3.org/1999/xlink" viewBox="0 0 300 300"><defs><style>.cls-1{fill:none;}.cls-2{clip-path:url(#clip-path);}.cls-3{fill:#d1aa77;}.cls-4{fill:#af8358;}.cls-5{fill:#453c31;}.cls-6{fill:#b8860b;}.cls-7{fill:#daa520;}.cls-8{fill:#8b0000;}.cls-9{fill:#956108;}</style><clipPath id="clip-path" transform="translate(0 0)"><circle class="cls-1" cx="150" cy="150.28" r="150"/></clipPath></defs><title>RCIconHairpiece</title><g class="cls-2"><g id="All"><circle class="cls-3" cx="150" cy="150" r="147.5"/><g id="Elements"><g id="Fire"><path class="cls-4" d="M45.57,223.55c-.65-12.27,4.61-21.15,13.86-28.18a35,35,0,0,0,6.43-6.72c6-7.74,8.66-16.67,9-26.87,1.29.83,2.42,1.43,3.4,2.21,4.73,3.72,7.37,8.81,9,14.44A76.61,76.61,0,0,1,88.8,186c1,5.11-.41,9.86-2,14.66A75,75,0,0,0,84,212.46,22.51,22.51,0,0,0,87.26,228c2.49-19.53,13.35-32.43,30-41.31.71,2.37,1.14,4.36,0,6.64-4.46,9.43-3.5,18.91.64,28.09a67.76,67.76,0,0,0,7.18,12c8.38,11.45,7,29.35-3.25,38a18.36,18.36,0,0,1-8.84,4.26c2.44-3.23,5.13-6.26,7.2-9.66,5.82-9.58,6.32-21.58-1.19-31.1-6-7.56-10-16.22-10.73-26-.26-3.7.23-7.45.39-11.39a15.46,15.46,0,0,0-1.29,1.12c-5.43,5.82-10,12.14-12.08,20A24.73,24.73,0,0,0,96.19,234c1.84,5,3.68,10.24,4.22,15.51,1.8,17.76-10.9,30.94-29.53,30-8.11-.41-15.31-2.93-20.69-9.34a19.17,19.17,0,0,1-4.82-13.31c.22-7.29-.1-14.56-2.2-21.61C41,228.06,37,222.45,29.07,220.13c2.67,9.41-.59,17.89-3.13,26.48-1.09,3.66-2,7.38-2.77,11.12-1,4.7.56,8.72,3.71,12.28,2,2.25,3.78,4.69,5.81,7.23a12.67,12.67,0,0,1-13.22-7.79,26.43,26.43,0,0,1,.94-23.7c5.36-10.17,5.19-20.51.76-30.94L20,212.14C30.22,212.34,37.33,218.73,45.57,223.55Zm33.87-37A18.83,18.83,0,0,1,77.32,197c-2.72,5.43-5.81,10.68-8.44,16.15s-3.13,11.25.85,16.6a4.41,4.41,0,0,0,3.43,2,16.43,16.43,0,0,1,6.25,1.74c7.6,4.19,10.84,10.88,10.47,19.44-.49,11.19-11.81,19.15-22.34,15.55-6.58-2.25-12.37-8.93-8.9-17.09a12.31,12.31,0,0,1,9.67-7.59c4.33-.77,8.2.34,11.08,4,1.35,1.73,1.8,3.6.63,5.37a21.31,21.31,0,0,1-4.65,5.41c-3.15,2.35-6.63,1-7.61-2.5a37.35,37.35,0,0,0,4.86-.65c1.56-.41,3.27-1,3.09-3.19-.18-2-1.5-3-3.37-3.32a8.28,8.28,0,0,0-9,6.2,7.48,7.48,0,0,0,5.84,8.76c6.69,1.62,12.85-1.92,15-8.63,2-6.22-.66-13.76-5.77-16.42-7-3.65-15.91-1.69-21.8,4.49s-5.42,16-1.89,21.59c4.63,7.32,14.16,9.79,23.36,8.1a18.08,18.08,0,0,0,9.77-4.75c8.69-8.7,9.56-25.17-.15-33.71a45.41,45.41,0,0,1-6.91-7.92c-4-5.64-5.68-11.65-2.56-18.48A71.82,71.82,0,0,0,82.89,195c1.77-7.47.25-14.72-2.9-22.27-2,9.73-7.79,16.53-13.83,23.22-3.18,3.53-6.34,7.09-9.22,10.86-4.8,6.29-7.71,13.28-6.19,21.38a8.12,8.12,0,0,1-.73,6,4.12,4.12,0,0,0,1.18,5.7l12.49-6.86c-3.51-7.94-4-9.45-2.43-15.55a34.63,34.63,0,0,1,4.23-9.56C70,200.62,74.77,193.63,79.44,186.56Z" transform="translate(0 0)"/><path class="cls-4" d="M35.19,227.94A16.09,16.09,0,0,1,40.52,241c-.27,5.37-1.16,10.71-1.75,16.07-.68,6.23-.37,12.29,4.18,17.17a30.63,30.63,0,0,0,14.62,8.43c10.3,2.84,20.69,2.23,30.88-.2,7.62-1.82,12.63-7.43,15.63-14.42a50.25,50.25,0,0,0,4-14.3c.36-3.44-1.26-7.13-2.22-10.64-2.13-7.82-5.14-15.5-4.33-23.81a32.29,32.29,0,0,1,2.32-8.53c.37,4,.27,8.07,1.22,11.9,1.5,6,3.69,11.9,5.6,17.84,2.28,7,4.07,14.13,2.23,21.6-2.51,10.26-8.81,17.52-17.85,22.65-15.87,9-39.21,6.92-53.56-4.23-7.48-5.8-9-13.26-8-21.84.5-4.26,1.36-8.48,2-12.72C36.51,240.09,36.83,234.2,35.19,227.94Z" transform="translate(0 0)"/></g><g id="Air"><path class="cls-4" d="M32.83,84a33.88,33.88,0,0,0-.17,13.49,37.37,37.37,0,0,0,11.68,21,33.29,33.29,0,0,0,28.47,9.06c9.09-1.23,14.86-7,18.18-15.36a20.92,20.92,0,0,0,0-15.67c-3-8-10.08-11.52-17.86-11.14a15.68,15.68,0,0,0-14,9.32c-3.72,7.68.64,19.07,10.49,19.83,7.27.56,11.38-3.43,10.67-10.51C79.91,101,75.83,98.4,73,99.49a2.14,2.14,0,0,0-1.36,2c-.11,1.65-.19,3.3-.35,5-.1,1-.44,2-1.64,2.33s-1.75-.38-2.41-1.13C63.92,104,65.79,97,71.05,95.31c3.71-1.18,7.94-1.74,11.4,1.39A10.83,10.83,0,0,1,85.76,103c2.51,13.09-10,19.5-18.54,17.86-7.87-1.49-13.17-6.29-15.84-13.67A17.77,17.77,0,0,1,52.94,92,28.18,28.18,0,0,1,65.21,80.52c7.84-3.84,15.17-1.81,22.25,2.23C98.4,89,100.74,101.21,98.44,111a33.54,33.54,0,0,1-15.35,21.47c-2.58,1.62-5.65,2-8.63,2.25-10.58.94-20.56-.87-29.52-6.93A30.46,30.46,0,0,1,34,115.09c-2.66-5.79-5.39-11.55-6.13-18-.52-4.47,0-8.65,3.21-12.13A2.3,2.3,0,0,1,32.83,84Z" transform="translate(0 0)"/><path class="cls-4" d="M104.61,58.21c.39,3.23-.7,5.55-3.18,6.84a8.06,8.06,0,0,1-8.35-.28c-3.65-2.34-4.84-7.27-3-11.57,4.72-11.21,16.4-11.76,24.38-4.91a19.67,19.67,0,0,1,7.19,17.43c-.86,8.69-8.32,14.48-16.06,16.14-6.7,1.43-13.34.82-18.83-3.75-8.52-7.1-12-16.24-9.62-27.2,1.55-7.29,5.18-13.36,11.79-17.19,6-3.47,12.55-3.81,19.25-2.94,9.15,1.2,17.38,4.63,22.08,12.81,5.45,9.46,8.06,19.87,5.3,30.89-3.54,14.15-12.17,24.24-25.14,30.71a26,26,0,0,1-4.38,1.59,82.34,82.34,0,0,0,14.91-15c6-8.14,10-17.06,9-27.4-.84-8-2.62-15.83-9.37-21.22-8-6.34-16.86-8.51-26.52-4.54-4.08,1.67-6.62,5.34-8.21,9.37-2.71,6.9-2.56,13.77,1.47,20.18,3.12,4.95,7.69,8.23,13.64,7.85,6.51-.42,11-4.37,13.35-10.46,1.64-4.22-.35-9.89-4.52-13.54a10,10,0,0,0-11.28-1,7.53,7.53,0,0,0-3.87,6.82c.27,2.38,1.72,3.39,4.1,3A20.66,20.66,0,0,0,104.61,58.21Z" transform="translate(0 0)"/><path class="cls-4" d="M73.73,24c-2.25,0-4.19,0-6.14,0-5.91-.11-11.86-.79-17.7.26-9.24,1.66-17.19,5.47-22,14.15-6.11,10.93-3.8,24.63,5.7,31.74,7.48,5.59,20.35,5.62,27.32-2.4,7.75-8.92,3.16-24.48-8.29-27.28-5.42-1.33-9,2-12.17,5.55S37.32,58.29,42,61.26c2.35,1.51,4.8,2.36,7.56,1s3.12-2.95,1.34-5.25c-1-1.24-2.12-2.33-3.15-3.52-.41-.47-.86-1.08-.47-1.7s1-.28,1.54-.3a10.64,10.64,0,0,1,6,1.75c3.29,2,3.59,6.81.58,10.19C51.77,67.51,47.12,68.35,42,67c-9.23-2.51-11.58-9.34-10.22-18.52,1.33-9,10.82-16.76,21-15.32,5.15.74,9.28,3.73,12.73,7.55,9.37,10.37,6.44,27.8-5.71,35.93-8.4,5.63-17.23,5-25.87,1-10.89-5.09-16.42-14.36-17.37-26-1.11-13.45,8-28.1,22.12-31.63C45.32,18.33,52,17.13,58.8,17.44c4.79.22,9.34,1.28,13.2,4.38A5.4,5.4,0,0,1,73.73,24Z" transform="translate(0 0)"/></g><g id="Earth"><path class="cls-4" d="M195.09,136q-14.51,0-29,0c-.74,0-1.79.5-1.93-1-.88-8.89-2.67-17.81-.44-26.71,1.71-6.85,4.22-13.46,6.45-20.16,4.14-12.42,8.77-24.66,13.18-37,3-8.49,6.44-16.85,9.79-25.22.93-2.32,1.48-4.77,2.78-7,2.51-4.26,5.7-6.55,11.06-6.34,12.72.49,25.46-.23,38.18-.67,5.39-.18,8.73,2.45,11.81,6.28,4.77,5.95,6.23,13.28,8.77,20.16,6.24,16.91,11.52,34.14,17.88,51,4.4,11.7,7.49,23.85,6.78,36.59-.13,2.35-.5,4.68-.65,7-.12,1.87-1,2.61-2.86,2.92-8.59,1.44-17.22,1.31-25.86.8-9.34-.54-18.65-1.57-28-1.16-1.41.07-1.64-.47-1.76-1.71-1-10.44-.52-20.9-.61-31.35,0-1.11.42-1.45,1.45-1.63a67.35,67.35,0,0,1,12.17-1.32c9.27,0,18.55.08,27.82,0,1.43,0,1.88.44,2.06,1.79.68,5,.65,5.12-4.46,5.27-7.86.22-15.68-1.18-23.55-.69-1.17.08-2.36,0-3.53.09-1.38.13-3.44-.66-4,.39-.7,1.4-.26,3.36-.29,5.08,0,1.28,1.08,1,1.71,1.05a130.24,130.24,0,0,0,15.28,1c6.76.16,13.52.13,20.27.63,2.06.16,3.08.69,2.6,2.89a4.81,4.81,0,0,0-.05,1.65c.23,1.67-.49,2.08-2.1,2.08-11.71,0-23.43.18-35.14.13-2.24,0-2.91.71-2.6,2.76a5.7,5.7,0,0,1,0,1.65c-.18,1.28.28,1.76,1.63,1.81,13.19.44,26.36,1.55,39.58.84a2.42,2.42,0,0,0,2.57-2.07c2.11-7,1.36-13.82-.66-20.65-1.92-6.48-4.57-12.68-7.1-18.93-4-9.9-6.84-20.19-9.53-30.51-2.16-8.28-4.49-16.49-8.15-24.27-1.75-3.72-4.23-7-6.33-10.45-.67-1.11-1.76-1.16-2.88-1.24a279.27,279.27,0,0,0-29.93-.21c-2.75.09-5.51.34-8.25.16-4.66-.29-7.44,2.14-9.14,6-4.54,10.44-8.09,21.23-11.64,32-3.34,10.13-6.77,20.22-10.41,30.25-4.24,11.69-7.7,23.6-7.2,36.26.21,5.31-.24,4.26,4.29,4.43,13.75.52,27.5-.23,41.26-.13,1.14,0,1.72-.22,1.73-1.52a30.85,30.85,0,0,1,.41-4.7c.27-1.67-.26-2.1-2-2-12.17.6-24.36.45-36.54.53-2.41,0-3.07-.65-3-3,.05-4-.09-4,4-4,11.79-.08,23.58-.2,35.37-.21,1.86,0,2.36-.51,2.25-2.37-.34-5.26-.25-5.27-5.55-5.19-9.9.14-19.8.22-29.71,0-1.75,0-2.47-.29-2.08-2.34.81-4.18.68-4.23,5-4.24,12.66,0,25.31,0,38-.07,1.87,0,2.31.54,2.39,2.36.44,10.61-.1,21.22-.15,31.83,0,1.7-.73,1.85-2.1,1.89C214.58,136,204.84,136,195.09,136Z" transform="translate(0 0)"/><path class="cls-4" d="M244.56,81.78c-.11,4.09-3,5.3-6.1,6.16-7.33,2-14.71,2.51-22.06.15-4.6-1.47-8.15-4.4-11.42-7.94-5.79-6.27-6.95-13.61-5.89-21.67a34,34,0,0,1,7.74-17.9c5.19-6.11,12-9,20.11-9.19,11.89-.28,22.88,6.15,27.27,16.58,3.31,7.88,1.53,15.51-1.7,23a10.64,10.64,0,0,1-7.34,6.44c-6,1.84-12,3.2-18.28,1.93-12.32-2.48-17.44-14.84-10.54-25.45,4.53-7,13.45-9.28,20.34-5.31,5.39,3.1,7.1,14,2.88,18.52a1.66,1.66,0,0,1-.76.5c-4.25,1-8.39,1.21-12.18-1.51a3.4,3.4,0,0,1-1.44-3.49c.24-1.79,1-2.7,3-2s3.93,1.09,5.87,1.7c1.15.37,1.55.13,1.47-1.12a50.34,50.34,0,0,1-.09-5.89c.1-1.74-.53-2.37-2.26-2.38-4.09,0-7.73,1-9.93,4.67-2.33,3.88-2.67,8.22-.42,12.14,1.56,2.71,4.71,3.9,7.76,4.4,12.57,2.07,20.9-7.78,19.43-19.06-1.11-8.49-7.89-16.15-15.39-17-11.39-1.27-19.54,1.61-26,12.46-3.89,6.58-4.81,13.79-2,20.84,3.65,9.31,12.65,14.1,23.19,13.44C234.84,84.5,239.64,83.05,244.56,81.78Z" transform="translate(0 0)"/></g><path id="Water" class="cls-4" d="M293.19,226.76c-.21,12-2.13,22.78-6.44,33.11-5.76,13.8-16.31,22.54-29.74,28.51-13.65,6.07-27.73,6.56-42.17,4.41-8.32-1.24-16.45-3.09-24-6.91A51.23,51.23,0,0,1,165.43,258c-8.55-21.83-7.41-43.24,5.06-63.34,7.91-12.74,19.7-21.32,33.69-26.3,20-7.13,39.85-5.74,58.75,4.18,17.76,9.33,27.09,24.52,29.51,44.21.15,1.25.33,2.49.41,3.74C293,222.85,293.11,225.2,293.19,226.76Zm-46.78-16.27-1.55,3a29.16,29.16,0,0,1-10,11.59c-6.42,4.11-13.14,5.57-20.34,2A36.83,36.83,0,0,1,206,241.38,19.33,19.33,0,0,1,175,237.6c-3.64-6.45-3.39-14.54,3.08-20.07,4.5-3.85,9.61-5.32,15.28-3.24,5.23,1.93,7.82,6.1,8.38,11.49.38,3.62-.53,6.94-3.85,9a8.55,8.55,0,0,1-9.55-.08,5.49,5.49,0,0,1-2.25-6.78,4.23,4.23,0,0,1,4.78-2.5c2.18.5,2.29,2.07,2.11,3.82-.12,1.12-.24,2.24-.37,3.36l.66.6c1.18-.68,2.65-1.11,3.49-2.09,3.24-3.74,1.73-9.64-3.07-12.05-4.14-2.09-8.4-2.24-12.23.63s-4.68,7.05-3.61,11.61c2.44,10.43,11.3,14.95,20,10.18a21.66,21.66,0,0,0,10.91-22.89c-1.76-8.54-7.26-16.86-19.28-17.32-9.66-.37-18.61,4.91-21.5,13.5-2.46,7.28-2.44,14.77-1.6,22.32.42,3.71,2.25,6.27,5.22,8.47,7.92,5.88,16.9,6.86,26.2,5.7,11.59-1.44,21-7.32,29.22-15.35A177.13,177.13,0,0,1,242,222.66c9.3-7.18,19.74-11.8,31.71-12.19,3.57-.12,7.14,0,10.71,0-.17-6-8.87-22-13.05-23.79C274.52,205.36,262.85,214.13,246.41,210.49ZM287.28,228c-.35-2.6-.71-4.91-.94-7.23a2.66,2.66,0,0,0-2.88-2.73c-5.09-.13-10.18-.5-15.26-.32a33.5,33.5,0,0,0-8.9,1.68c-6.76,2.15-12.42,6.23-17.74,10.8-6.67,5.71-13.06,11.77-20,17.1-15.3,11.71-32.13,13.86-50.11,6.94-.74-.29-1.5-.54-2.86-1,1.7,2.83,3,5.05,4.36,7.25a14.5,14.5,0,0,0,8.06,6.13,45.19,45.19,0,0,0,22,1.7,58.68,58.68,0,0,0,27.52-12.44c6.23-5,12-10.51,18-15.79,8.93-7.83,19.14-12.34,31.21-12.08C282.21,228,284.62,228,287.28,228Zm-2,18.39c.5-2.89,1-6,1.56-9.05.35-1.82-.41-2.45-2.14-2.79-11.57-2.27-21.58,1.38-30.45,8.41-7.67,6.09-14.7,13-22.44,19A60.5,60.5,0,0,1,202,274.31c-5.68.7-11.52.12-17.29.12l-.21.55c1,.7,1.9,1.47,2.92,2.08,8.65,5.23,18,6.73,28,5.84a40.44,40.44,0,0,0,24.18-10.81c3.83-3.48,7.61-7,11.53-10.39,6.1-5.22,12.44-10.16,20.27-12.47C275.77,247.93,280.38,247.34,285.24,246.37Zm-78.54-45c.62-.71,1-1.21,1.45-1.65a18,18,0,0,1,17.12-4.84c5.62,1.2,8.34,5.77,9.83,11,1.4,4.91-.5,9.53-4.67,11.65a8.38,8.38,0,0,1-9.12-.62,7.57,7.57,0,0,1-3.36-7.31c.18-1.77,1-3.21,3-3.32a3.27,3.27,0,0,1,3.52,2.8,16.47,16.47,0,0,1,0,2.33c.1,1,0,2.48.57,2.74a4.18,4.18,0,0,0,3.07-.19c4-1.7,4.77-6.69,1.84-10.57-4.57-6-14.33-4.75-18.12-.84a4.55,4.55,0,0,0-1.13,5c1.37,3.83,2.67,7.68,4,11.52a6.25,6.25,0,0,0,4.48,4.1,15.14,15.14,0,0,0,13.38-2.49c7.11-5.13,9.19-11.6,6.82-20.56-3.59-13.57-18.14-26.31-38.55-21.17-11.06,2.79-19,10.22-26.45,18.35-.1.11-.06.35,0,0,5.53-.65,11.07-1.68,16.64-1.85C196.86,195.18,202,197.58,206.7,201.33Zm5.75-29.42a34,34,0,0,1,14.49,4.77c4.25,2.69,8.23,5.82,12.45,8.84,3.6-3,8.12-3.73,13-3.3,5.43.48,9,3.44,10.92,8.35,2.09,5.3-.36,10.6-5.42,12.14-5.79,1.77-11-2.16-10.31-7.79.29-2.38,2.06-3.53,4.13-2.72s1.82,2.39,1.39,3.94-.23,2.72,1.19,3.41a3.17,3.17,0,0,0,4-.92,6,6,0,0,0,.67-7.19c-2.71-4.65-8.5-6.16-14.07-3.82-2,.86-3.12,2.09-2.41,4.3,1.18,3.72,2.39,7.43,3.78,11.08a4.58,4.58,0,0,0,2.2,2.29c4.8,2.17,9.6,2.35,14-.94s5.11-7.68,4.21-12.64c-1.79-9.79-8.15-15.28-17.2-18.33-11.16-3.78-22.56-3.16-34-2.07A29,29,0,0,0,212.45,171.91ZM228.27,288c26.88.74,48-14.38,54.58-34.42-1.18,0-2.25-.07-3.29,0-8.42.69-15.31,4.69-21.62,10C248.12,271.8,240.07,282.16,228.27,288Z" transform="translate(0 0)"/></g><rect class="cls-4" x="3" y="141" width="294" height="6"/><rect class="cls-4" x="3" y="153" width="294" height="6"/><rect class="cls-4" x="-3" y="147" width="294" height="6" transform="translate(-6 294) rotate(-90)"/><rect class="cls-4" x="9" y="147" width="294" height="6" transform="translate(6 306) rotate(-90)"/><path class="cls-5" d="M146.1,31.92h1.54a5.74,5.74,0,0,1,4.08,1.6l2.78,3c.69,10,1.36,20.07,2.07,30.11.16,2.15.5,4.29.76,6.43A141.15,141.15,0,0,0,165,108.63c1.46,4.09,2.76,8.24,5.17,11.91a57.31,57.31,0,0,0,9.81,15.59,39.31,39.31,0,0,0,5.53,6.42,36.42,36.42,0,0,0,4.62,5q1.56,1.75,3.13,3.49l2.88,3.5,4,5.48,1.85,3,1.92,4c.72,2.17,1.44,4.33,2.17,6.5a86.42,86.42,0,0,1,.73,10,39.24,39.24,0,0,1-5.28,20.35l-4.11,5.47c-1.3,1.26-2.53,2.61-3.93,3.76s-1,1.68.17,2.63c3.49,2.91,6.59,6.1,6.16,11.19-.24,4.36-1.44,8.66-.7,13.07a19.7,19.7,0,0,0-.09,5.53,27.71,27.71,0,0,0,.09,6q.3,2.75.59,5.47c-.13,2.18.08,4.39-.62,6.51-3.56,5.24-8.57,8.48-14.48,10.49l-12.5,3-13,1a23.9,23.9,0,0,0-5.53.47,20.6,20.6,0,0,0-5.49,0l-5-.26c-6.27-.5-12.55-.91-18.75-2l-5.24-1.17-7-2.14-5.46-3a53.37,53.37,0,0,1-5.9-6.31c-.91-4.06-1.19-8.11.32-12.1,0-5.74.11-11.47.14-17.21a4.6,4.6,0,0,0-.26-1.2c-1.81-6.26-1.57-12,4-16.44a29.38,29.38,0,0,1,4.47-3.16c1-.56,1.48-1.19.9-2.38-1-2-1.86-4.07-2.78-6.11q-.9-2.59-1.82-5.17c-2.63-11.15-5-22.34-6.74-33.67a6.47,6.47,0,0,0-.42-1.16,29.16,29.16,0,0,0-.88-6c-.2-1.5-.4-3-.61-4.5a22.94,22.94,0,0,0-.65-5c-.08-.49-.15-1-.23-1.48q-.94-10.08-1.9-20.15-.57-9.47-1.15-18.91v-.9c.24-4.83.2-9.65,0-14.48.08-2,.15-4,.23-6a33.91,33.91,0,0,0,.14-7,51.78,51.78,0,0,0,.93-9,25.45,25.45,0,0,0,.66-5.5q.54-3.49,1.1-7,.77-3.73,1.54-7.47c.78-2.85,1.55-5.71,2.33-8.56.76-2.12,1.53-4.23,2.29-6.35a112.76,112.76,0,0,1,5.88-11.54c2.36-3.81,5.3-6.13,10.17-5.59,3.71.42,7.11,3.47,7.07,7.25-.07,5.9-.23,11.81-.36,17.72a50.34,50.34,0,0,0-.6,9.5,124.61,124.61,0,0,0,0,24.73l.74.07,2.83-17.24,3.09-10.42c1.67-4.06,3.32-8.11,5.3-12a20.31,20.31,0,0,1,5.64-6.83Zm-15.26,84c-.46-.21-.68-.23-.74-.34-.32-.58-.62-1.17-.91-1.77-7.89-16.27-10.68-33.52-9.89-51.46q.72-16.45,1.5-32.92c.1-2.08-.34-3.93-2.55-4.61s-3.55.83-4.62,2.52a77.32,77.32,0,0,0-8.14,17.93A150.54,150.54,0,0,0,99.6,75.8c-1.68,16.29-1.36,32.57-.14,48.86q1.49,20.06,4.84,39.87c2.86,16.92,5.35,33.93,13.68,49.32.74,1.39.49,2.1-1,2.56a28.07,28.07,0,0,0-6.75,3.21c-4,2.54-5.73,6-4.59,9.6a18.82,18.82,0,0,1,.74,5.9c0,5.49,0,11,0,16.49a7.24,7.24,0,0,1-.35,2.95c-1.6,3.73-.55,6.83,2.37,9.42,3.6,3.18,8,4.79,12.53,5.91a123.77,123.77,0,0,0,56.17.55,35.52,35.52,0,0,0,12.75-4.91c3.28-2.23,5.37-5,4.93-9.37a144,144,0,0,1,0-27.39,8.11,8.11,0,0,0-2-6.68,20.79,20.79,0,0,0-6.08-4.3c-1.68-.85-3.63-1.12-5.19-2.35,1-1.31,2.33-1.79,3.53-2.5a34.59,34.59,0,0,0,15.89-37.85c-2-8-6.57-14.48-11.8-20.61s-11.33-12-16.23-18.64c-10.23-13.89-15.15-29.9-18.47-46.52-2.41-12.12-2.93-24.44-3.65-36.74-.24-4.07-.59-8.13-.91-12.19a3.44,3.44,0,0,0-2.67-3.25,3.25,3.25,0,0,0-3.67,1.52,23.06,23.06,0,0,0-1.55,2.57,93.8,93.8,0,0,0-9.16,26.06c-2.52,12.32-2.81,24.79-2.52,37.29A94.28,94.28,0,0,0,130.84,115.87Z" transform="translate(0 0)"/><path class="cls-6" d="M130.84,115.87a94.28,94.28,0,0,1-.58-11.29c-.29-12.5,0-25,2.52-37.29a93.8,93.8,0,0,1,9.16-26.06,23.06,23.06,0,0,1,1.55-2.57,3.25,3.25,0,0,1,3.67-1.52,3.44,3.44,0,0,1,2.67,3.25c.32,4.06.67,8.12.91,12.19.72,12.3,1.24,24.62,3.65,36.74,3.32,16.62,8.24,32.63,18.47,46.52,4.9,6.65,10.87,12.38,16.23,18.64s9.82,12.61,11.8,20.61A34.59,34.59,0,0,1,185,212.94c-1.2.71-2.57,1.19-3.53,2.5,1.56,1.23,3.51,1.5,5.19,2.35a20.79,20.79,0,0,1,6.08,4.3,8.11,8.11,0,0,1,2,6.68,144,144,0,0,0,0,27.39c.44,4.37-1.65,7.14-4.93,9.37a35.52,35.52,0,0,1-12.75,4.91,123.77,123.77,0,0,1-56.17-.55c-4.54-1.12-8.93-2.73-12.53-5.91-2.92-2.59-4-5.69-2.37-9.42a7.24,7.24,0,0,0,.35-2.95c0-5.5,0-11,0-16.49a18.82,18.82,0,0,0-.74-5.9c-1.14-3.6.58-7.06,4.59-9.6a28.07,28.07,0,0,1,6.75-3.21c1.49-.46,1.74-1.17,1-2.56-8.33-15.39-10.82-32.4-13.68-49.32q-3.35-19.82-4.84-39.87c-1.22-16.29-1.54-32.57.14-48.86a150.54,150.54,0,0,1,5.89-30.58,77.32,77.32,0,0,1,8.14-17.93c1.07-1.69,2.33-3.22,4.62-2.52s2.65,2.53,2.55,4.61Q120,45.84,119.3,62.3c-.79,17.94,2,35.19,9.89,51.46.29.6.59,1.19.91,1.77C130.16,115.64,130.38,115.66,130.84,115.87Zm44.37,94.55a.8.8,0,0,0-.13.19s.1.14.13.13.12-.09.19-.14l.5-.47c2.41-1.48,4.84-2.92,7.21-4.45a24.19,24.19,0,0,0,8.23-9.22c5.36-10.09,4.38-19.85-1.6-29.35-4.07-6.46-9.4-11.88-14.56-17.4a97.4,97.4,0,0,1-19.57-30.51c-7.13-17.82-10.27-36.45-11.3-55.51-.13-2.49-.42-5-.64-7.45a5.32,5.32,0,0,0-1.29,2.3,114.51,114.51,0,0,0-5,30.95c-.42,11.4.36,22.78.91,34.17a21.23,21.23,0,0,0,5.46,13.68c4.52,5.15,9.46,9.85,14.3,14.65,5.73,5.7,11.59,11.26,15.89,18.21,4.94,8,7.27,16.46,6,25.94-.65,4.88-2.51,9.28-4.26,13.76Zm-2.58,3.45c-3,2-5.74,4.27-9.22,5.38a1.4,1.4,0,0,0-.94,2c1.26,4,2.53,7.92,3.78,11.89a1.61,1.61,0,0,0,2.08,1.26c5.23-1,10.5-1.83,15.38-4.1,1.41-.66,3.38-1.18,3.46-2.9.08-1.93-2-2.46-3.47-3.11-1.18-.53-2.31-1.67-3.88-.51-2.67,2-4.87,1.45-6.55-1.43-1.57-2.68-1-5.46-.37-8.25l.17-.58ZM112.19,47.78c.23-.3,0-.14,0,.07-.21.54-.39,1.09-.55,1.65a153.77,153.77,0,0,0-5.7,37.44c-1.15,28.26,1.68,56.23,6.66,84,2.51,14,5.3,27.78,12,40.53,3.46,6.56,6,13.57,5.67,21.25-.06,1.36.95,1.44,1.82,1.55a169.57,169.57,0,0,0,25.68,1.27c1.51-.06,1.58-.68,1.17-1.91-.94-2.76-1.68-5.59-2.64-8.33-1.77-5.08-.3-4.18-5.86-4.39-6.36-.24-12.65-.93-18.09-4.75-11.2-7.86-15.07-24.38-8.57-36.45,4.91-9.1,15.14-14.48,24.82-12.7,7.39,1.36,12.69,5.58,14.64,13,1.74,6.66-.78,12.11-6,16.39A10.44,10.44,0,0,1,142.53,195c-1.86-2.2-2-4.28-.35-5.77s3.42-1.21,5.59,1c1.89,1.92,3.68,2,5.64.2,4.28-3.9,4.37-9.46.08-13.34-4.51-4.08-9.66-4.12-14.93-1.8-13.07,5.76-14.81,25.43-3,34.48,6.05,4.62,13.23,4.5,20.35,3.88,8.21-.73,13.44-5.16,15.8-13.09,2.8-9.37,1.43-18.1-3.71-26.32-4.07-6.5-9.35-12-15-17a126.58,126.58,0,0,1-28.86-37.34,113,113,0,0,1-12-55.79C112.35,58.48,112.19,52.92,112.19,47.78Zm39.28,218.31a99,99,0,0,0,12.12-.6c7-.81,14-1.87,20.57-4.87,2.27-1.05,4.08-2.27,3-5.29a8.92,8.92,0,0,1-.13-3q0-6.75,0-13.5c0-1.28-.13-2.09-1.84-1.46-10.2,3.79-20.81,5.17-31.62,5.26-12.79.12-25.51-.45-37.66-5-2.32-.86-2.47-.08-2.45,1.83,0,5.33.56,10.74-.23,16-.49,3.2.7,4.16,2.89,5.18a32.35,32.35,0,0,0,3.24,1.32C129.24,265.25,139.5,266.08,151.47,266.09Zm-28.08-35.6c-.47-2.18-.92-4.37-1.42-6.54-.2-.92-.67-1.5-1.76-1.14a21.2,21.2,0,0,0-6.3,2.89c-1.44,1.07-1.37,2.15,0,3.18,2.18,1.59,4.73,2.33,7.24,3.19C122.77,232.62,123.39,232.14,123.39,230.49Z" transform="translate(0 0)"/><path class="cls-7" d="M112.19,47.78c0,5.14.16,10.7,0,16.24a113,113,0,0,0,12,55.79,126.58,126.58,0,0,0,28.86,37.34c5.64,5.08,10.92,10.53,15,17,5.14,8.22,6.51,16.95,3.71,26.32-2.36,7.93-7.59,12.36-15.8,13.09-7.12.62-14.3.74-20.35-3.88-11.85-9.05-10.11-28.72,3-34.48,5.27-2.32,10.42-2.28,14.93,1.8,4.29,3.88,4.2,9.44-.08,13.34-2,1.78-3.75,1.72-5.64-.2-2.17-2.2-3.92-2.51-5.59-1s-1.51,3.57.35,5.77a10.44,10.44,0,0,0,14.73,1.47c5.18-4.28,7.7-9.73,6-16.39-1.95-7.43-7.25-11.65-14.64-13-9.68-1.78-19.91,3.6-24.82,12.7-6.5,12.07-2.63,28.59,8.57,36.45,5.44,3.82,11.73,4.51,18.09,4.75,5.56.21,4.09-.69,5.86,4.39,1,2.74,1.7,5.57,2.64,8.33.41,1.23.34,1.85-1.17,1.91a169.57,169.57,0,0,1-25.68-1.27c-.87-.11-1.88-.19-1.82-1.55.36-7.68-2.21-14.69-5.67-21.25-6.72-12.75-9.51-26.57-12-40.53-5-27.78-7.81-55.75-6.66-84a153.77,153.77,0,0,1,5.7-37.44c.16-.56.34-1.11.55-1.65C112.23,47.64,112.42,47.48,112.19,47.78Z" transform="translate(0 0)"/><path class="cls-8" d="M151.47,266.09c-12,0-22.23-.84-32.16-4.13a32.35,32.35,0,0,1-3.24-1.32c-2.19-1-3.38-2-2.89-5.18.79-5.22.28-10.63.23-16,0-1.91.13-2.69,2.45-1.83,12.15,4.53,24.87,5.1,37.66,5,10.81-.09,21.42-1.47,31.62-5.26,1.71-.63,1.84.18,1.84,1.46q0,6.75,0,13.5a8.92,8.92,0,0,0,.13,3c1.12,3-.69,4.24-3,5.29-6.53,3-13.53,4.06-20.57,4.87A99,99,0,0,1,151.47,266.09Z" transform="translate(0 0)"/><path class="cls-9" d="M172.9,214.1c-.64,2.78-1.2,5.56.37,8.24,1.68,2.88,3.88,3.42,6.55,1.43,1.57-1.16,2.7,0,3.88.51,1.47.65,3.55,1.18,3.47,3.11-.08,1.72-2,2.24-3.46,2.9-4.88,2.27-10.15,3.13-15.38,4.1a1.61,1.61,0,0,1-2.08-1.26c-1.25-4-2.52-7.93-3.78-11.89a1.4,1.4,0,0,1,.94-2c3.48-1.11,6.26-3.38,9.22-5.38Z" transform="translate(0 0)"/><path class="cls-9" d="M123.39,230.49c0,1.65-.62,2.13-2.2,1.58-2.51-.86-5.06-1.6-7.24-3.19-1.41-1-1.48-2.11,0-3.18a21.2,21.2,0,0,1,6.3-2.89c1.09-.36,1.56.22,1.76,1.14C122.47,226.12,122.92,228.31,123.39,230.49Z" transform="translate(0 0)"/><path class="cls-9" d="M172.63,213.87l.44-.36c0,.2-.11.39-.17.59Z" transform="translate(0 0)"/><path class="cls-9" d="M175.4,210.6c-.07.05-.12.12-.19.14s-.14-.1-.13-.13a.8.8,0,0,1,.13-.19Z" transform="translate(0 0)"/><path class="cls-9" d="M175.21,210.42c.16-.17.31-.35.46-.52.08.07.15.15.23.23l-.5.47Z" transform="translate(0 0)"/><path class="cls-9" d="M175.67,209.89c1.75-4.47,3.61-8.87,4.26-13.75,1.26-9.48-1.07-18-6-25.94-4.3-6.95-10.16-12.51-15.89-18.21-4.84-4.8-9.78-9.5-14.3-14.65a21.23,21.23,0,0,1-5.46-13.68c-.55-11.39-1.33-22.77-.91-34.17a114.51,114.51,0,0,1,5-30.95,5.32,5.32,0,0,1,1.29-2.3c.22,2.48.51,5,.64,7.45,1,19.06,4.17,37.69,11.3,55.51a97.4,97.4,0,0,0,19.57,30.51c5.16,5.52,10.49,10.94,14.56,17.4,6,9.5,7,19.26,1.6,29.35a24.19,24.19,0,0,1-8.23,9.22c-2.37,1.53-4.8,3-7.21,4.45Z" transform="translate(0 0)"/></g><path class="cls-5" d="M0,0V300H300V0ZM150,295.28a145,145,0,1,1,145-145A145,145,0,0,1,150,295.28Z" transform="translate(0 0)"/></g></svg>